<?xml version="1.0" encoding="utf-8"?>
<!-- Generator: Adobe Illustrator 19.0.0, SVG Export Plug-In . SVG Version: 6.00 Build 0)  -->
<svg version="1.1" id="Layer_1" xmlns="http://www.w3.org/2000/svg" xmlns:xlink="http://www.w3.org/1999/xlink" x="0px" y="0px"
	 viewBox="0 0 200 48.2" style="enable-background:new 0 0 200 48.2;" xml:space="preserve">
<style type="text/css">
	.st0{fill:#FFFFFF;}
</style>
<g id="XMLID_1455_">
	<path id="XMLID_1465_" class="st0" d="M22,30.5l9.7-24.4h11.3L25.9,46.3h-8.1L0.9,6.1h11.3L22,30.5z"/>
	<path id="XMLID_1463_" class="st0" d="M54.6,9.1c0.2,0,0.4-0.3,0.5,0.3c0.1,1.7-1.7,3.1-3.8,3.1c-2,0-3.8-1-3.8-2.7
		c0-0.6,0.2-0.7,0.4-0.7H47v36h9v-36H54.6z"/>
	<path id="XMLID_1461_" class="st0" d="M62.9,6.1h10.4l19.1,24.5h0.1V6.1H103v40.1H92.6L73.5,21.7h-0.1v24.6H62.9V6.1z"/>
	<path id="XMLID_1459_" class="st0" d="M144.7,6.1v22.6c0,2.6-0.2,5.2-0.6,7.6c-0.4,2.4-1.6,4.7-3.6,6.6c-1.3,1.3-2.8,2.2-4.6,2.9
		s-3.6,1.1-5.4,1.3c-0.6,0.1-1.1,0.1-1.7,0.2c-0.6,0-1.1,0.1-1.7,0.1c-0.5,0-1.1,0-1.7-0.1c-0.6,0-1.1-0.1-1.7-0.2
		c-1.8-0.2-3.6-0.6-5.4-1.3c-1.8-0.7-3.3-1.6-4.6-2.9c-2-2-3.2-4.2-3.6-6.6c-0.4-2.4-0.6-5-0.6-7.6V6.1h10.4v21.1c0,0.2,0,0.5,0,0.7
		c0,0.2,0,0.4,0,0.6c0,2.4,0.5,4.6,1.3,6.7c0.8,2,2.7,3,5.8,3c3.1,0,5-1,5.8-3c0.8-2,1.2-4.2,1.3-6.7c0-0.2,0-0.4,0-0.6
		c0-0.2,0-0.4,0-0.6V6.1H144.7z"/>
	<path id="XMLID_1457_" class="st0" d="M155.7,6.1H166l8.1,21.5l8.6-21.5h10.4l6.1,40.1h-10.4l-2.9-23.1h-0.1l-9.6,23.1h-4.2
		l-9.2-23.1h-0.1l-3.4,23.1h-10.4L155.7,6.1z"/>
	<path id="XMLID_1456_" class="st0" d="M54.6,9.1h-6.8c1.1-5,2.2-4.8,3.3-7.2C52.2,4.3,53.4,4.1,54.6,9.1z"/>
</g>
</svg>
