<?xml version="1.0" encoding="utf-8"?>
<!-- Generator: Adobe Illustrator 19.0.0, SVG Export Plug-In . SVG Version: 6.00 Build 0)  -->
<svg version="1.1" id="Layer_1" xmlns="http://www.w3.org/2000/svg" xmlns:xlink="http://www.w3.org/1999/xlink" x="0px" y="0px"
	 viewBox="298 911 960 380" style="enable-background:new 298 911 960 380;" xml:space="preserve">
<style type="text/css">
	.st0{enable-background:new    ;}
	.st1{fill:#FFFFFF;}
</style>
<g class="st0">
	<path class="st1" d="M576.5,1059.1V963h20.7v15.7c4.4-6.6,9.6-11.5,15.5-14.5c5.9-3,13.2-4.6,21.7-4.6c7.2,0,13.3,1.1,18.3,3.4
		c5,2.3,9,5.6,11.8,10.1c1.7,2.6,2.9,5.7,3.6,9.2c0.7,3.5,1.1,9.7,1.1,18.5v58.3H647v-49.4c0-12.6-1.5-21-4.6-25.2
		c-3.1-4.2-8.5-6.2-16.4-6.2c-5.1,0-9.7,0.9-13.7,2.8c-4,1.9-7.2,4.6-9.5,8c-1.6,2.3-2.8,5.3-3.4,8.9c-0.6,3.6-1,9.4-1,17.3v43.8
		H576.5z"/>
	<path class="st1" d="M679.6,1011.2c0-7,1.3-13.7,4-19.9c2.7-6.3,6.5-11.8,11.5-16.7c4.9-4.8,10.6-8.5,17-11.1
		c6.4-2.6,13.1-3.9,20.2-3.9c7.2,0,14,1.3,20.4,3.9c6.4,2.6,12.1,6.4,17.2,11.4c5.1,4.9,8.9,10.5,11.6,16.7c2.6,6.2,4,12.7,4,19.6
		c0,7.1-1.3,13.8-3.9,20c-2.6,6.2-6.4,11.7-11.4,16.5c-5.3,5.1-11.1,8.9-17.5,11.5c-6.4,2.6-13.2,3.9-20.3,3.9
		c-7,0-13.7-1.3-20.1-3.9c-6.4-2.6-12.1-6.4-17.1-11.3c-5.1-5-8.9-10.6-11.6-16.8C680.9,1024.8,679.6,1018.2,679.6,1011.2z
		 M762.2,1011.4c0-8.9-2.9-16.5-8.6-22.7c-5.7-6.2-12.8-9.3-21.1-9.3c-8.2,0-15.3,3.1-21,9.3c-5.8,6.2-8.7,13.7-8.7,22.7
		c0,8.9,2.9,16.5,8.7,22.7c5.8,6.2,12.8,9.3,21,9.3c8.2,0,15.3-3.1,21-9.3S762.2,1020.3,762.2,1011.4z"/>
	<path class="st1" d="M802.1,1059.1v-76.9h-16.8V963h16.8v-36.4h22V963h16.8v19.3h-16.8v76.9H802.1z"/>
	<path class="st1" d="M915.4,1104.4h-22.6l26.4-53.5L883.9,963h24.3l17.6,49.8c1,3,1.9,6.1,2.7,9.3c0.8,3.1,1.4,6.3,1.9,9.6
		c0.9-3.4,3-8.8,6.3-16.1l0.5-1.2l23.7-51.3h23.8L915.4,1104.4z"/>
	<path class="st1" d="M977.8,1011.2c0-7,1.3-13.7,4-19.9c2.7-6.3,6.5-11.8,11.5-16.7c4.9-4.8,10.6-8.5,17-11.1
		c6.4-2.6,13.1-3.9,20.2-3.9c7.2,0,14,1.3,20.4,3.9c6.4,2.6,12.1,6.4,17.2,11.4c5.1,4.9,8.9,10.5,11.6,16.7c2.6,6.2,4,12.7,4,19.6
		c0,7.1-1.3,13.8-3.9,20c-2.6,6.2-6.4,11.7-11.4,16.5c-5.3,5.1-11.1,8.9-17.5,11.5c-6.4,2.6-13.2,3.9-20.3,3.9
		c-7,0-13.7-1.3-20.1-3.9c-6.4-2.6-12.1-6.4-17.1-11.3c-5.1-5-8.9-10.6-11.6-16.8C979.1,1024.8,977.8,1018.2,977.8,1011.2z
		 M1060.4,1011.4c0-8.9-2.9-16.5-8.6-22.7c-5.7-6.2-12.8-9.3-21.1-9.3c-8.2,0-15.3,3.1-21,9.3c-5.8,6.2-8.7,13.7-8.7,22.7
		c0,8.9,2.9,16.5,8.7,22.7c5.8,6.2,12.8,9.3,21,9.3c8.2,0,15.3-3.1,21-9.3S1060.4,1020.3,1060.4,1011.4z"/>
	<path class="st1" d="M1116.4,963v54.1c0,9.3,1.9,16,5.8,20.1c3.9,4.1,10.1,6.1,18.8,6.1c8.7,0,14.9-2,18.8-6.1s5.8-10.7,5.8-20.1
		V963h22v47.6c0,18.4-3.7,31.7-11.1,40c-7.4,8.3-19.1,12.5-35.3,12.5c-16.4,0-28.3-4.1-35.7-12.4c-7.4-8.2-11.1-21.6-11.1-40.1V963
		H1116.4z"/>
	<path class="st1" d="M1227.4,978.3c2.4-6.4,5.5-11.1,9.4-14.1c3.9-3,8.7-4.6,14.4-4.6c3.1,0,6.2,0.4,9.2,1.1c3,0.7,6,1.8,8.9,3.2
		l-7.9,18.7c-1.9-1.4-3.9-2.3-6.1-3c-2.2-0.6-4.6-1-7.4-1c-7.3,0-12.5,2.9-15.7,8.8c-3.2,5.8-4.8,15.7-4.8,29.5v42.2h-22v-96.3h22
		V978.3z"/>
</g>
<g class="st0">
	<path class="st1" d="M316.1,1231.7v-76.9h-16.8v-19.3h16.8v-36.4h22v36.4H355v19.3h-16.8v76.9H316.1z"/>
</g>
<g class="st0">
	<path class="st1" d="M378,1277h-22.6l26.4-53.5l-35.3-87.8h24.3l17.6,49.8c1,3,1.9,6.1,2.7,9.3c0.8,3.1,1.4,6.3,1.9,9.6
		c0.9-3.4,3-8.8,6.3-16.1l0.5-1.2l23.7-51.3h23.8L378,1277z"/>
</g>
<g class="st0">
	<path class="st1" d="M442.7,1277v-141.3h22v15.7c2.6-6.1,6.7-10.8,12.3-14.1c5.6-3.3,12.4-5,20.2-5c12.8,0,23.1,4.7,31.1,14.1
		c7.9,9.4,11.9,21.8,11.9,37.2c0,16.2-3.9,28.9-11.7,38.2c-7.8,9.3-18.5,13.9-32.1,13.9c-6.8,0-12.8-1.4-18-4.1
		c-5.2-2.7-9.8-6.8-13.7-12.4v57.7H442.7z M464,1183.4c0,9.9,2.5,17.9,7.5,23.8c5,5.9,11.5,8.9,19.6,8.9c8.3,0,14.8-2.8,19.3-8.3
		c4.6-5.5,6.8-13.4,6.8-23.6c0-10.1-2.4-18.1-7.1-23.8c-4.8-5.7-11.3-8.6-19.6-8.6c-8.3,0-14.8,2.8-19.5,8.3
		C466.3,1165.7,464,1173.4,464,1183.4z"/>
</g>
<g class="st0">
	<path class="st1" d="M677.3,1163c-3.4-3.7-7.3-6.6-11.8-8.5c-4.5-2-9.3-2.9-14.5-2.9c-9,0-16.2,2.9-21.6,8.7
		c-5.4,5.8-8.1,13.5-8.1,23.1c0,10,2.7,17.9,8.2,23.6c5.4,5.7,13,8.6,22.6,8.6c5.3,0,10.1-1,14.3-3c4.2-2,7.9-5,11.1-9.1v25.3
		c-4.1,2.3-8.4,4-13,5.2c-4.6,1.1-9.5,1.7-14.8,1.7c-15.1,0-27.4-4.8-36.9-14.4c-9.5-9.6-14.2-22-14.2-37.3c0-15.5,4.9-28,14.8-37.5
		c9.8-9.5,22.7-14.2,38.6-14.2c5,0,9.6,0.5,13.8,1.5c4.2,1,8.1,2.5,11.8,4.5V1163z"/>
</g>
<g class="st0">
	<path class="st1" d="M781.9,1231.7h-22v-12.5c-3.9,5.5-8.5,9.7-13.7,12.4c-5.2,2.7-11.2,4.1-18,4.1c-13.6,0-24.3-4.6-32.1-13.9
		c-7.8-9.3-11.7-22-11.7-38.2c0-15.3,4-27.7,12-37.2c8-9.4,18.4-14.1,31.2-14.1c7.8,0,14.5,1.6,20.1,4.9c5.6,3.3,9.6,8,12.2,14.1
		v-15.7h22V1231.7z M760.5,1183.4c0-9.9-2.3-17.7-6.9-23.2c-4.6-5.5-11.1-8.3-19.4-8.3c-8.3,0-14.9,2.9-19.6,8.6
		c-4.8,5.7-7.1,13.6-7.1,23.8c0,10.2,2.3,18.1,6.9,23.6c4.6,5.5,11.1,8.3,19.5,8.3c7.9,0,14.3-3,19.3-9
		C758,1201.1,760.5,1193.2,760.5,1183.4z"/>
</g>
<g class="st0">
	<path class="st1" d="M800.9,1231.7v-157.2h22v157.2H800.9z"/>
</g>
<g class="st0">
	<path class="st1" d="M963.2,1237.5l-22.2-50c-1.7-3.9-3.1-7.3-4.2-10.3c-1.1-3-2.1-6-2.9-8.9c-1.5,4.4-2.8,8.2-4,11.3
		c-1.2,3.1-2.1,5.5-2.7,7l-22.8,50.8l-49.8-101.9h23.4l21.6,46.3c0.9,2,1.7,4.6,2.6,8.1c0.8,3.4,1.6,7.2,2.2,11.3
		c0.1-2.4,0.5-5,1.2-7.6c0.7-2.6,2-5.9,3.8-9.7l23.5-51.9h1.8l23.9,51.9c1.5,3.2,2.6,6.3,3.3,9c0.7,2.8,1.1,5.5,1.3,8.3
		c0.6-3.7,1.4-7.1,2.3-10.3c0.9-3.2,2-6.2,3.2-8.8l21.2-46.5h23.2L963.2,1237.5z"/>
</g>
<g class="st0">
	<path class="st1" d="M1016.7,1094c0-3.7,1.4-6.9,4.1-9.6c2.7-2.7,6-4.1,9.8-4.1c3.9,0,7.2,1.3,9.8,3.9c2.6,2.6,3.9,5.9,3.9,9.8
		c0,3.9-1.3,7.2-4,9.9c-2.6,2.7-5.9,4-9.7,4c-3.8,0-7-1.4-9.8-4.1C1018.1,1101.1,1016.7,1097.8,1016.7,1094z M1019.7,1231.7v-96.1
		h22v96.1H1019.7z"/>
</g>
<g class="st0">
	<path class="st1" d="M1060.7,1231.7v-96.1h20.7v15.7c4.4-6.6,9.6-11.5,15.5-14.5c5.9-3,13.2-4.6,21.7-4.6c7.2,0,13.3,1.1,18.3,3.4
		c5,2.3,9,5.6,11.8,10.1c1.7,2.6,2.9,5.7,3.6,9.2c0.7,3.5,1.1,9.7,1.1,18.5v58.3h-22.2v-49.4c0-12.6-1.5-21-4.6-25.2
		c-3.1-4.2-8.5-6.2-16.4-6.2c-5.1,0-9.7,0.9-13.7,2.8c-4,1.9-7.2,4.6-9.5,8c-1.6,2.3-2.8,5.3-3.4,8.9c-0.6,3.6-1,9.4-1,17.3v43.8
		H1060.7z"/>
</g>
<g class="st0">
	<path class="st1" d="M1258.7,1186.9h-76.9c0.5,9,3.2,16,8,21c4.8,5,11.2,7.6,19.2,7.6c7.1,0,13-1.5,17.7-4.5
		c4.7-3,8.9-7.8,12.4-14.4l18.6,10.3c-5.4,9.7-12.1,16.9-20.1,21.6c-8,4.7-17.3,7.1-28.1,7.1c-15.4,0-27.7-4.7-36.8-14.1
		c-9.1-9.4-13.7-21.9-13.7-37.6c0-15.1,4.7-27.5,14.1-37.2c9.4-9.7,21.5-14.5,36.3-14.5c15.5,0,27.5,4.4,36.2,13.3
		c8.7,8.9,13,21.3,13,37.2V1186.9z M1235.9,1172.1c-0.9-6.9-3.5-12.1-7.9-15.8c-4.4-3.6-10.4-5.4-18-5.4c-7.2,0-13,1.8-17.4,5.3
		c-4.4,3.5-7.5,8.8-9.2,15.9H1235.9z"/>
</g>
</svg>
