<?xml version="1.0" encoding="utf-8"?>
<!-- Generator: Adobe Illustrator 19.0.0, SVG Export Plug-In . SVG Version: 6.00 Build 0)  -->
<svg version="1.1" id="Layer_1" xmlns="http://www.w3.org/2000/svg" xmlns:xlink="http://www.w3.org/1999/xlink" x="0px" y="0px"
	 viewBox="0 0 500 500" style="enable-background:new 0 0 500 500;" xml:space="preserve">
<style type="text/css">
	.st0{fill:#FFFFFF;}
</style>
<g id="XMLID_87_">
	<g id="XMLID_124_">
		<polygon id="XMLID_138_" class="st0" points="149.8,343.6 141.7,360.3 133.7,343.6 63.9,198.8 56.9,184.3 73,184.3 80,198.8 
			141.7,326.9 141.7,326.9 		"/>
		<polygon id="XMLID_137_" class="st0" points="292.1,344 283.9,360.8 275.8,344 213.4,214.6 205.2,197.7 213,181.4 213.8,181.8 
			221.5,197.6 283.9,327.1 		"/>
		<polygon id="XMLID_136_" class="st0" points="363.3,196.2 355.2,213.1 292.1,344 283.9,360.8 275.8,344 283.9,327.1 347.1,196.2 
			355.2,179.4 		"/>
		<path id="XMLID_135_" class="st0" d="M442.4,360.3h-16.2l-71-147.2l-8.1-16.9l8.1-16.9l8.1,16.9
			C389.7,250.9,416,305.6,442.4,360.3z"/>
		<polygon id="XMLID_134_" class="st0" points="405.2,360.3 388.9,360.3 346.9,273 355,256.2 		"/>
		<polygon id="XMLID_133_" class="st0" points="218.7,272.2 176.2,360.3 160,360.3 210.4,255.6 210.7,255.7 		"/>
		<polygon id="XMLID_132_" class="st0" points="167.3,307.2 166.8,308.4 149.8,343.6 141.7,360.3 133.7,343.6 141.7,326.9 
			141.7,326.9 151.2,307.2 159.3,290.5 		"/>
		<polygon id="XMLID_131_" class="st0" points="167.3,307.2 166.8,308.4 154.6,314.2 151.2,307.2 99,198.9 92,184.4 108.2,184.4 
			115.1,198.9 159.3,290.5 		"/>
		<polygon id="XMLID_130_" class="st0" points="115.1,198.9 99,198.9 80,198.8 63.9,198.8 56.9,184.3 73,184.3 92,184.4 
			108.2,184.4 		"/>
		<polygon id="XMLID_129_" class="st0" points="221.5,197.6 213.4,214.6 177.3,290 176.9,289.8 169,273.4 205.2,197.7 213,181.4 
			213.8,181.8 		"/>
		<g id="XMLID_125_">
			<path id="XMLID_126_" class="st0" d="M249,178c-10.8,0-19.6-8.8-19.6-19.6c0-10.8,8.8-19.6,19.6-19.6c10.8,0,19.6,8.8,19.6,19.6
				C268.5,169.2,259.7,178,249,178z M249,148.6c-5.4,0-9.8,4.4-9.8,9.8c0,5.4,4.4,9.8,9.8,9.8c5.4,0,9.8-4.4,9.8-9.8
				C258.8,153,254.4,148.6,249,148.6z"/>
		</g>
	</g>
</g>
</svg>
